<svg xmlns="http://www.w3.org/2000/svg" xmlns:xlink="http://www.w3.org/1999/xlink" version="1.1" width="1000" height="1000" viewBox="0 0 1000 1000" xml:space="preserve">
<desc>Created with Fabric.js 3.5.0</desc>
<defs>
</defs>
<rect x="0" y="0" width="100%" height="100%" fill="#ffffff"/>
<g transform="matrix(8.7402 0 0 8.7402 458.0689 688.8394)" id="468741">
<g style="" vector-effect="non-scaling-stroke">
		<g transform="matrix(1 0 0 1 -1.8078 9.4183)" id="_x32_._exercise">
<path style="stroke: rgb(0,0,0); stroke-width: 2; stroke-dasharray: none; stroke-linecap: round; stroke-dashoffset: 0; stroke-linejoin: round; stroke-miterlimit: 10; is-custom-font: none; font-file-url: none; fill: none; fill-rule: nonzero; opacity: 1;" transform=" translate(-30.1922, -41.4183)" d="M 37.3966751 46.1718178 l 1.1918678 -2.7530823 c 0.4388351 -1.0136528 -0.0271492 -2.1911316 -1.040802 -2.6299629 l -11.9300098 -5.1647758 c -1.0136566 -0.4388351 -2.1911316 0.0271492 -2.6299667 1.0408058 l -1.1918716 2.7530785 c -0.4388351 1.0136566 0.0271492 2.1911316 1.0408058 2.6299667 l 11.9300098 5.164772 C 35.780365 47.6514549 36.95784 47.1854706 37.3966751 46.1718178 z" stroke-linecap="round"/>
</g>
		<g transform="matrix(1 0 0 1 12.4818 15.3814)" id="_x32_._exercise">
<path style="stroke: rgb(0,0,0); stroke-width: 2; stroke-dasharray: none; stroke-linecap: round; stroke-dashoffset: 0; stroke-linejoin: round; stroke-miterlimit: 10; is-custom-font: none; font-file-url: none; fill: none; fill-rule: nonzero; opacity: 1;" transform=" translate(-44.4818, -47.3814)" d="M 36.999382 47.0895081 l 11.4711647 4.9661293 c 1.2664185 0.5482635 2.7391968 -0.034584 3.2874565 -1.3010063 c 0.5482635 -1.2664223 -0.034584 -2.7391968 -1.3010063 -3.2874565 L 38.985836 42.5010452 L 36.999382 47.0895081 z" stroke-linecap="round"/>
</g>
		<g transform="matrix(1 0 0 1 -9.3798 14.8389)" id="_x32_._exercise">
<path style="stroke: rgb(0,0,0); stroke-width: 2; stroke-dasharray: none; stroke-linecap: round; stroke-dashoffset: 0; stroke-linejoin: round; stroke-miterlimit: 10; is-custom-font: none; font-file-url: none; fill: none; fill-rule: nonzero; opacity: 1;" transform=" translate(-22.6202, -46.8388)" d="M 20.2403336 51.820713 h 0.0000038 c 1.2670689 0.5485458 2.7389126 -0.0339355 3.2874546 -1.3010025 l 2.9796791 -6.8827019 l -4.5884647 -1.9864502 l -2.9796791 6.8826981 C 18.3907852 49.8003273 18.9732647 51.272171 20.2403336 51.820713 z" stroke-linecap="round"/>
</g>
		<g transform="matrix(0.3973 -0.9177 0.9177 0.3973 -15.5732 3.459)" id="_x32_._exercise">
<ellipse style="stroke: rgb(0,0,0); stroke-width: 2; stroke-dasharray: none; stroke-linecap: round; stroke-dashoffset: 0; stroke-linejoin: round; stroke-miterlimit: 10; is-custom-font: none; font-file-url: none; fill: none; fill-rule: nonzero; opacity: 1;" cx="0" cy="0" rx="3.5" ry="3.5"/>
</g>
		<g transform="matrix(1 0 0 1 0 21)" id="_x32_._exercise">
<line style="stroke: rgb(0,0,0); stroke-width: 2; stroke-dasharray: none; stroke-linecap: round; stroke-dashoffset: 0; stroke-linejoin: round; stroke-miterlimit: 10; is-custom-font: none; font-file-url: none; fill: none; fill-rule: nonzero; opacity: 1;" x1="-28" y1="0" x2="28" y2="0"/>
</g>
		<g transform="matrix(1 0 0 1 0 -12.5)" id="_x32_._exercise">
<rect style="stroke: rgb(0,0,0); stroke-width: 2; stroke-dasharray: none; stroke-linecap: round; stroke-dashoffset: 0; stroke-linejoin: round; stroke-miterlimit: 10; is-custom-font: none; font-file-url: none; fill: none; fill-rule: nonzero; opacity: 1;" x="-7" y="-8.5" rx="0" ry="0" width="14" height="17"/>
</g>
		<g transform="matrix(1 0 0 1 0 -12.5)" id="_x32_._exercise">
<rect style="stroke: rgb(0,0,0); stroke-width: 2; stroke-dasharray: none; stroke-linecap: round; stroke-dashoffset: 0; stroke-linejoin: round; stroke-miterlimit: 10; is-custom-font: none; font-file-url: none; fill: none; fill-rule: nonzero; opacity: 1;" x="-3" y="-4.5" rx="0" ry="0" width="6" height="9"/>
</g>
</g>
</g>
<g transform="matrix(31.2313 -11.6498 11.6498 31.2313 543.7153 516.3936)" id="702111">
<path style="stroke: none; stroke-width: 1; stroke-dasharray: none; stroke-linecap: butt; stroke-dashoffset: 0; stroke-linejoin: miter; stroke-miterlimit: 4; is-custom-font: none; font-file-url: none; fill: rgb(255,0,0); fill-rule: nonzero; opacity: 1;" vector-effect="non-scaling-stroke" transform=" translate(-12, -12.175)" d="M 12 21.35 l -1.45 -1.32 C 5.4 15.36 2 12.28 2 8.5 C 2 5.42 4.42 3 7.5 3 c 1.74 0 3.41 0.81 4.5 2.09 C 13.09 3.81 14.76 3 16.5 3 C 19.58 3 22 5.42 22 8.5 c 0 3.78 -3.4 6.86 -8.55 11.54 L 12 21.35 z" stroke-linecap="round"/>
</g>
</svg>